<?xml version="1.0" encoding="UTF-8" standalone="no"?>
<!-- Created with Inkscape (http://www.inkscape.org/) -->

<svg
   version="1.1"
   id="svg1"
   width="1024"
   height="1024"
   viewBox="0 0 1024 1024"
   sodipodi:docname="logoV3Blanc.svg"
   inkscape:version="1.4 (86a8ad7, 2024-10-11)"
   inkscape:export-filename="logoV2.png"
   inkscape:export-xdpi="96"
   inkscape:export-ydpi="96"
   xmlns:inkscape="http://www.inkscape.org/namespaces/inkscape"
   xmlns:sodipodi="http://sodipodi.sourceforge.net/DTD/sodipodi-0.dtd"
   xmlns="http://www.w3.org/2000/svg"
   xmlns:svg="http://www.w3.org/2000/svg">
  <defs
     id="defs1" />
  <sodipodi:namedview
     id="namedview1"
     pagecolor="#505050"
     bordercolor="#ffffff"
     borderopacity="1"
     inkscape:showpageshadow="0"
     inkscape:pageopacity="0"
     inkscape:pagecheckerboard="1"
     inkscape:deskcolor="#505050"
     showgrid="false"
     inkscape:zoom="1.4941406"
     inkscape:cx="451.76471"
     inkscape:cy="501.62614"
     inkscape:window-width="1920"
     inkscape:window-height="1000"
     inkscape:window-x="-11"
     inkscape:window-y="-11"
     inkscape:window-maximized="1"
     inkscape:current-layer="g1" />
  <g
     inkscape:groupmode="layer"
     inkscape:label="Image"
     id="g1">
    <path
       style="fill:#ffffff;stroke-width:2.89133858;stroke-dasharray:none;opacity:1;stroke:#ffffff;stroke-opacity:1;fill-opacity:1"
       d="m 472.5,744.97676 c -13.53004,-2.08123 -26.99815,-5.88469 -43.71212,-12.34449 -27.46965,-10.61678 -50.82502,-25.86894 -73.64762,-48.09538 -24.66799,-24.02363 -41.84962,-48.9282 -55.13609,-79.91912 -4.84848,-11.30916 -12.1432,-33.82535 -13.56418,-41.86777 L 285.77742,559 h 4.48118 4.48119 l 1.20205,6.10992 c 4.15046,21.09637 22.31555,58.39843 37.9153,77.85917 8.46965,10.56591 20.44998,24.01765 27.29514,30.64749 34.22193,33.14543 79.20157,54.39313 125.94331,59.49371 19.2789,2.10377 44.76501,0.18389 61.27578,-4.61592 C 600.35769,713.38154 656.7694,663.03904 684.51291,607 c 4.03808,-8.15652 6.12579,-13.17739 11.85047,-28.5 l 2.61527,-7 7.08506,0.33498 c 5.45089,0.25771 6.96535,0.64692 6.56606,1.68745 -0.28545,0.74386 -1.03769,3.27877 -1.67165,5.63312 -1.84927,6.86765 -8.88378,23.49126 -14.7449,34.84445 -11.72446,22.71064 -25.97148,41.78818 -46.69609,62.52859 -23.84381,23.862 -43.10748,38.23168 -67.01713,49.99124 -36.5419,17.97252 -73.18202,24.12038 -110,18.45693 z m 93.58945,-1.95374 c 0.8742,-0.51849 5.8242,-2.47688 11,-4.35199 36.94066,-13.38295 72.42947,-38.51381 97.68065,-69.17103 18.42931,-22.37486 38.43379,-60.42394 46.26641,-88 1.24976,-4.4 2.99031,-8.5982 3.86789,-9.32934 1.50735,-1.25582 10.3847,-1.2149 11.65331,0.0537 1.29666,1.29667 -9.49228,30.34046 -16.58052,44.63469 -19.81677,39.96273 -48.62529,73.47876 -83.1391,96.72458 -12.15233,8.18487 -36.32892,19.72616 -51.83809,24.74619 -13.76297,4.45482 -21.92325,6.48003 -18.91055,4.69319 z M 484,723.87559 c -21.05913,-2.42865 -40.55804,-8.18768 -60.5,-17.86877 -37.02775,-17.9756 -67.70115,-46.49431 -90.07724,-83.74963 -10.04736,-16.72848 -23.32112,-48.69217 -21.13043,-50.88285 1.53855,-1.53856 3.52057,0.9605 6.16034,7.76734 6.959,17.94434 18.90985,39.1029 32.28967,57.16771 8.58925,11.5968 29.12632,32.45373 40.25766,40.88466 42.46885,32.16611 96.30745,48.98713 140.5,43.89698 6.71337,-0.77325 8.42004,-0.67774 7.33196,0.41034 -0.27576,0.27576 -5.18826,1.16752 -10.91667,1.98168 -11.24596,1.59837 -31.86153,1.78264 -43.91529,0.39254 z m -5.12983,-69.44046 C 466.85305,650.73494 458,640.47757 458,630.2544 c 0,-8.70786 4.68093,-15.62029 13.60493,-20.09069 11.43005,-5.7258 26.238,-2.88029 37.09621,7.12846 4.26607,3.93233 4.574,4.05204 5.86866,2.28149 0.75149,-1.02773 2.7602,-5.28973 4.46379,-9.47113 17.7647,-43.60255 34.78695,-82.60856 36.17304,-82.8895 1.93114,-0.39142 3.53097,3.25316 4.16028,9.47757 0.34351,3.39758 2.50816,9.44272 6.26642,17.5 5.50657,11.80547 5.75897,12.70351 6.1655,21.93621 0.3888,8.82981 0.19782,10.13057 -2.3068,15.71161 -4.2561,9.48384 -18.89995,22.08182 -24.31745,20.92008 -1.23894,-0.26569 -0.85889,-0.79255 1.46092,-2.02527 4.32652,-2.29906 11.16319,-10.23204 13.98987,-16.23323 2.98888,-6.34557 3.29688,-17.32563 0.62463,-22.26756 C 559.14319,568.33621 550.981,558 550.01108,558 c -1.11024,0 -3.29425,5.13017 -24.4788,57.5 -10.6861,26.41686 -13.73827,32.047 -19.40658,35.79812 -7.22128,4.77881 -17.9231,6.01055 -27.25553,3.13701 z M 704.25,551.86787 c -2.8875,-0.56123 -5.24792,-1.54859 -5.24537,-2.19414 0.008,-2.01187 4.84941,-13.17608 5.69398,-13.13006 0.44076,0.024 2.78554,0.62316 5.21062,1.33142 2.51516,0.73457 5.93131,1.0022 7.95252,0.62302 4.8217,-0.90455 11.38261,-5.8089 13.99925,-10.46458 1.98595,-3.53352 2.07586,-4.43032 1.12156,-11.18749 -1.37298,-9.72179 -5.46108,-33.74729 -7.97082,-46.84406 C 723.90528,464.22807 723,459.16557 723,458.75198 723,458.33839 727.42048,458 732.8233,458 h 9.82329 l 1.65787,12.75 c 0.91183,7.0125 2.21397,18.0375 2.89365,24.5 0.67967,6.4625 1.47565,11.73009 1.76883,11.70575 0.29318,-0.0243 7.28306,-11.04397 15.53306,-24.48806 l 15,-24.44381 9.25,-0.0119 c 5.10149,-0.007 9.25,0.40878 9.25,0.92615 0,0.51595 -4.19713,6.92845 -9.32695,14.25 -5.12983,7.32155 -16.71733,24.08381 -25.75,37.24946 -18.69032,27.24223 -25.62211,35.32869 -33.46429,39.03863 -6.26348,2.9631 -17.01883,3.98352 -25.20876,2.39169 z M 475.83608,524.11706 c -8.13952,-1.72 -12.82626,-7.44435 -12.83234,-15.67334 -0.002,-3.2114 2.32441,-13.24535 6.37701,-27.5 L 475.7615,458.5 l 9.23747,-0.28909 9.23747,-0.28909 -0.65827,2.78909 c -0.36205,1.534 -2.73027,10.21409 -5.2627,19.28909 -2.53244,9.075 -4.65192,18.39979 -4.70995,20.72175 -0.14306,5.72391 2.5781,8.3973 9.19445,9.03305 6.04999,0.58133 11.45625,-1.06147 16.48786,-5.01017 5.85298,-4.5933 6.10834,-5.24364 16.29305,-41.49463 l 1.47499,-5.25 h 8.97206 c 7.5951,0 8.97207,0.24804 8.97207,1.61616 0,0.88888 -2.43761,10.22638 -5.41691,20.75 -2.9793,10.52361 -6.88233,24.42134 -8.6734,30.88384 l -3.2565,11.75 h -8.82659 c -4.85463,0 -8.82409,-0.3375 -8.82102,-0.75 0.003,-0.4125 0.48587,-2.4797 1.07289,-4.59377 0.58703,-2.11408 0.83418,-4.07691 0.54923,-4.36186 -0.28495,-0.28495 -2.54278,1.14099 -5.0174,3.16876 -7.89945,6.473 -20.97413,9.72484 -30.77422,7.65393 z m 184.29566,-0.19467 c -15.72759,-3.09088 -24.15956,-14.83745 -21.12913,-29.43497 1.78611,-8.60363 7.2525,-18.49282 13.47539,-24.37817 17.91499,-16.94325 49.29996,-18.34351 59.01308,-2.63291 2.67079,4.3199 3.0034,5.71846 2.9598,12.44524 -0.027,4.16813 -0.60686,9.49092 -1.28854,11.82842 L 711.92291,496 H 684.46146 657 v 2.54966 c 0,3.80753 2.69245,8.29206 6.29855,10.49082 6.56912,4.00543 22.76509,1.43198 27.57389,-4.38134 2.00668,-2.42585 3.10997,-2.05617 8.40238,2.81545 l 4.77482,4.39517 -4.55646,3.13493 c -11.95691,8.22658 -26.32004,11.48068 -39.36144,8.9177 z M 697,481.64922 c 0,-4.00603 -2.03565,-8.44256 -4.66395,-10.16469 -4.32447,-2.8335 -12.16151,-3.0454 -18.10293,-0.48947 C 669.36921,473.08746 661,480.66578 661,482.97766 661,483.63625 667.40441,484 679,484 h 18 z m -275.79147,40.68302 c -1.8103,-0.89221 -4.21846,-2.79447 -5.35147,-4.22723 -2.77924,-3.51453 -2.13082,-8.17358 4.05064,-29.10501 5.40208,-18.2923 5.46291,-17.78688 -2.1577,-17.92971 -4.35971,-0.0817 -4.59553,-1.07163 -1.92257,-8.07029 l 1.71867,-4.5 5.83827,-0.5 5.83827,-0.5 2.14985,-6.90537 2.14984,-6.90537 8.98884,-2.82433 c 4.94386,-1.55338 9.29387,-2.83346 9.6667,-2.84463 0.37283,-0.0112 -0.41467,4.06217 -1.75,9.05186 -1.33533,4.98969 -2.42787,9.48969 -2.42787,10 0,0.51031 3.15,0.92784 7,0.92784 8.00296,0 7.95183,-0.082 5.40702,8.67185 l -1.59298,5.47965 -7.39201,-0.32575 c -8.68475,-0.38272 -7.44697,-2.09554 -12.85513,17.78868 -3.99152,14.67563 -4.20932,16.60752 -2.07231,18.38108 1.56278,1.29699 8.11351,1.58104 11.52092,0.49957 2.39187,-0.75915 2.38101,-0.98467 0.34321,7.12787 -1.30838,5.20868 -2.13292,6.7209 -4.0651,7.45552 -4.12794,1.56943 -19.38745,1.07617 -23.08509,-0.74623 z M 249.19437,479.75 c -2.90985,-23.7875 -5.26897,-43.8125 -5.2425,-44.5 0.0352,-0.91346 2.74047,-1.25 10.04813,-1.25 5.5,0 10.00895,0.3375 10.01988,0.75 0.10697,4.03522 6.85977,67.46298 7.22085,67.82406 0.2642,0.2642 10.72604,-15.05688 23.24854,-34.04685 L 317.25744,434 h 9.87128 c 5.4292,0 9.87128,0.19588 9.87128,0.43529 0,0.2394 -4.8375,7.42752 -10.75,15.97358 -5.9125,8.54607 -19.46748,28.37519 -30.12218,44.06472 L 276.75563,523 h -11.13532 -11.13532 z m 68.20394,41.5 c 0.2932,-0.9625 4.11963,-14.35719 8.50316,-29.76597 4.38354,-15.40878 8.40224,-29.15265 8.93044,-30.54192 0.90427,-2.37842 1.43287,-2.54206 9.05018,-2.80173 4.44941,-0.15167 8.48599,-0.0309 8.97018,0.26832 0.4842,0.29925 -2.36219,11.91721 -6.32532,25.8177 -3.96313,13.90048 -8.05985,28.3111 -9.10383,32.0236 l -1.89814,6.75 h -9.32988 c -8.42201,0 -9.278,-0.17029 -8.79679,-1.75 z m 36.04054,0.0488 c 0.37558,-0.97874 4.28483,-14.60885 8.68723,-30.28914 4.40241,-15.68029 8.41537,-29.52212 8.91771,-30.75962 0.83965,-2.06848 1.55571,-2.25 8.87575,-2.25 4.37934,0 8.2172,0.41224 8.5286,0.91608 0.31139,0.50385 0.17884,1.96635 -0.29456,3.25 -0.4734,1.28366 -1.17621,3.63523 -1.56179,5.22572 -0.69033,2.84749 -0.62424,2.82271 4.31423,-1.61739 6.49935,-5.84348 11.22942,-8.04528 18.45199,-8.58924 5.37016,-0.40444 5.80974,-0.28478 5.27837,1.43683 -0.31881,1.0329 -1.5105,4.9155 -2.6482,8.628 l -2.06854,6.75 h -5.99194 c -9.40824,0 -16.74466,4.07439 -20.70711,11.5 -0.88048,1.65 -3.89364,10.65 -6.69593,20 l -5.09506,17 -9.33681,0.28914 c -8.60298,0.26642 -9.28314,0.14928 -8.65394,-1.49038 z M 548.47343,521.25 c 0.83141,-2.11659 10.25102,-35.12186 18.05138,-63.25 3.12672,-11.275 6.10359,-21.2875 6.61526,-22.25 0.78004,-1.46735 2.37826,-1.75 9.89511,-1.75 4.93065,0 8.96339,0.3375 8.96165,0.75 -0.005,1.19396 -6.68112,26.10539 -8.89923,33.20708 -1.10923,3.55139 -1.82077,6.65308 -1.5812,6.89265 0.23957,0.23957 11.99891,-8.85362 26.13188,-20.20708 L 633.34459,434 h 11.32771 c 6.23023,0 11.3277,0.35753 11.3277,0.79451 0,0.43699 -2.3625,2.5733 -5.25,4.74736 -5.07967,3.8246 -30.04671,23.39018 -38.30297,30.01635 l -4.05296,3.25277 12.30296,24.74401 C 627.46366,511.16421 633,522.45674 633,522.64951 633,522.84228 628.02855,523 621.95234,523 h -11.04765 l -9.42774,-19.57394 c -8.70725,-18.07802 -9.56635,-19.47275 -11.24139,-18.25 -8.90564,6.50099 -15.31014,12.54495 -16.14214,15.23341 -0.52603,1.69979 -2.17367,7.47803 -3.66142,12.84053 l -2.705,9.75 h -9.97049 c -9.09091,0 -9.90985,-0.15438 -9.28308,-1.75 z M 344.5,447.84527 c -3.19064,-1.74515 -4.5,-3.97639 -4.5,-7.66832 0,-2.64229 0.81895,-4.21317 3.52891,-6.76898 6.04624,-5.70234 13.94411,-5.3947 17.34659,0.67569 1.29734,2.3146 1.24906,2.99013 -0.46367,6.4868 -3.30477,6.74695 -10.69746,10.12684 -15.91183,7.27481 z m 377.73116,-22.0693 c -1.14913,-4.3943 -13.1495,-27.66767 -18.71307,-36.2919 -19.09789,-29.60413 -56.07649,-62.236 -89.51562,-78.99329 -17.88051,-8.96044 -40.40487,-16.33012 -61.50247,-20.12284 -15.67971,-2.81874 -45.54628,-2.5878 -60,0.46395 -37.84411,7.99037 -71.93331,28.0922 -104,61.32703 -17.9385,18.59197 -31.83877,37.28691 -42.44898,57.09108 l -5.22363,9.75 h -7.36267 -7.36267 l 1.42737,-3.41617 C 343.69948,376.88343 389.04451,327.68465 432,302.23458 c 15.14584,-8.97353 42.63114,-19.309 61.52201,-23.1345 57.74553,-11.69376 117.52972,5.27507 168.12055,47.71847 19.40992,16.28403 31.2226,29.40807 44.62084,49.57432 9.43107,14.19509 26.28463,48.4306 24.63097,50.03414 -0.2169,0.21033 -2.12293,0.65437 -4.23562,0.98676 -3.38949,0.53327 -3.91021,0.34065 -4.42759,-1.6378 z M 698.6036,417.25 c -3.5898,-7.01686 -12.54601,-20.98064 -19.18188,-29.9068 -20.24855,-27.23713 -46.91491,-49.02991 -79.92172,-65.31513 -32.40395,-15.98777 -56.49528,-21.4918 -91.25128,-20.84775 -15.78004,0.29242 -20.15871,-0.15438 -15.49872,-1.58147 0.9625,-0.29476 8.08007,-0.97732 15.81681,-1.51681 41.1717,-2.8709 83.98716,7.96245 117.43319,29.71346 17.23571,11.20893 39.16656,31.05216 51.88643,46.94731 11.06727,13.83001 29.02013,43.98133 27.57748,46.31559 -1.50437,2.43412 -4.52434,0.75763 -6.86031,-3.8084 z m -394.95834,-4 C 319.6637,376.91909 348.65602,340.13949 379.68991,316.77993 395.0927,305.18607 414.5898,294.20838 429,289.01625 c 3.575,-1.2881 6.95,-2.66829 7.5,-3.06708 0.93073,-0.67485 12.83231,-4.17657 20.25,-5.95802 6.53419,-1.56927 3.00277,0.59267 -6.00114,3.67391 -31.92024,10.92343 -64.30158,32.31564 -88.10344,58.20412 -18.56029,20.18739 -36.93061,49.30707 -46.60816,73.88082 -1.2697,3.2241 -1.33428,3.25 -8.10355,3.25 h -6.82365 z"
       id="path1" />
  </g>
</svg>
